<?xml version="1.0" encoding="UTF-8" standalone="no"?>
<!-- Created with Inkscape (http://www.inkscape.org/) -->

<svg
   width="1920"
   height="1080"
   viewBox="0 0 1920 1080"
   version="1.1"
   id="svg1"
   xml:space="preserve"
   xmlns="http://www.w3.org/2000/svg"
   xmlns:svg="http://www.w3.org/2000/svg"><defs
     id="defs1" /><g
     id="layer1"><path
       style="font-size:433.596px;font-family:'Noto Sans';-inkscape-font-specification:'Noto Sans';stroke-width:5.41995;stroke-linecap:round;stroke-linejoin:round"
       d="m 640.02439,992.8471 q 0,27.7501 -13.44148,47.262 -13.44147,19.0782 -38.59004,29.4845 -24.71498,10.4063 -58.53546,10.4063 -17.34384,0 -33.3869,-1.7344 -15.60945,-1.7344 -28.61733,-4.7695 -13.00788,-3.4688 -22.98059,-8.2384 v -37.2892 q 15.60945,6.9375 38.59004,12.5743 23.41419,5.6367 48.12916,5.6367 22.98059,0 38.59004,-6.0703 15.60946,-6.0704 23.41419,-17.3439 7.80473,-11.2735 7.80473,-26.44933 0,-15.17586 -6.50394,-25.58216 -6.50394,-10.40631 -22.547,-19.07823 -15.60945,-9.10551 -43.79319,-19.07822 -19.94542,-7.37113 -35.12128,-15.60946 -14.74226,-8.67192 -24.71497,-19.51182 -9.97271,-10.8399 -15.17586,-24.71497 -4.76956,-13.87507 -4.76956,-32.08611 0,-24.71497 12.57429,-42.05881 12.57428,-17.77744 34.68768,-27.31655 22.54699,-9.53911 51.59792,-9.53911 25.58217,0 46.82837,4.76956 21.24621,4.76955 38.59005,12.57428 l -12.14069,33.38689 q -16.04305,-6.93753 -35.12128,-11.70709 -18.64463,-4.76955 -39.02364,-4.76955 -19.51182,0 -32.5197,5.63674 -13.00788,5.63675 -19.51182,16.04306 -6.50394,9.9727 -6.50394,23.41418 0,15.60946 6.50394,26.01576 6.50394,10.4063 21.2462,18.64463 14.74227,8.23832 39.89084,17.77744 27.31654,9.9727 45.96117,21.6798 19.07823,11.27349 28.61734,27.31654 9.97271,16.04306 9.97271,40.32443 z M 785.27896,839.35412 q 42.4924,0 62.87142,18.64462 20.37901,18.64463 20.37901,59.40266 v 158.2625 h -27.75015 l -7.37113,-32.9533 h -1.73438 q -9.97271,12.5743 -20.81261,21.2462 -10.4063,8.2384 -24.28138,12.1407 -13.44147,3.9024 -32.95329,3.9024 -20.81261,0 -37.72286,-7.3711 -16.47664,-7.3712 -26.01576,-22.547 -9.53911,-15.6095 -9.53911,-39.0237 0,-34.68765 27.31655,-53.33227 27.31655,-19.07823 84.11763,-20.81261 l 39.45723,-1.30079 v -13.87507 q 0,-29.05094 -12.57428,-40.32443 -12.57429,-11.2735 -35.55487,-11.2735 -18.21104,0 -34.68769,5.63675 -16.47664,5.20315 -30.78531,12.14069 l -11.70709,-28.61734 q 15.17586,-8.23832 35.98846,-13.87507 20.81261,-6.07034 43.35961,-6.07034 z m 11.27349,124.00845 q -43.3596,1.73439 -60.26984,13.87508 -16.47665,12.14068 -16.47665,34.25405 0,19.5119 11.70709,28.6174 12.14069,9.1055 30.78532,9.1055 29.48453,0 48.99635,-16.0431 19.51182,-16.4766 19.51182,-50.29711 v -20.8126 z M 1052.3744,838.92052 q 41.6252,0 62.8715,20.37901 21.2462,19.94542 21.2462,65.0394 v 151.32497 h -37.7229 V 926.94051 q 0,-28.18374 -12.5743,-42.05881 -12.5743,-13.87508 -39.4572,-13.87508 -38.5901,0 -53.33233,21.6798 -14.74226,21.67981 -14.74226,62.43783 V 1075.6639 H 940.50666 V 843.25648 h 30.78532 l 5.63675,31.65251 h 2.16798 q 7.80472,-12.14069 19.07822,-19.94542 11.70707,-8.23832 25.58217,-12.14069 13.8751,-3.90236 28.6173,-3.90236 z m 411.0491,0 q 39.4572,0 58.969,20.37901 19.5118,19.94542 19.5118,65.0394 v 151.32497 h -37.7228 V 926.07332 q 0,-27.31655 -11.7071,-41.19162 -11.2735,-13.87508 -35.5549,-13.87508 -33.8205,0 -48.5627,19.51182 -14.3087,19.51183 -14.3087,56.80108 v 128.34438 h -37.7229 V 926.07332 q 0,-18.21103 -5.2031,-30.35172 -5.2032,-12.57429 -15.6095,-18.64463 -10.4063,-6.07035 -26.8829,-6.07035 -23.4142,0 -36.8557,9.97271 -13.4415,9.53911 -19.5118,28.18374 -5.6367,18.64463 -5.6367,45.96118 V 1075.6639 H 1208.469 V 843.25648 h 30.7853 l 5.6368,31.65251 h 2.1679 q 7.3712,-12.14069 17.7775,-19.94542 10.8399,-8.23832 23.8478,-12.14069 13.0078,-3.90236 26.8829,-3.90236 26.883,0 44.6604,9.53911 18.211,9.53911 26.4494,29.48453 h 2.1679 q 11.7071,-19.94542 31.6526,-29.48453 20.379,-9.53911 42.926,-9.53911 z m 344.7086,4.33596 v 232.40742 h -31.2189 l -5.6367,-30.7853 h -1.7344 q -7.3712,12.1407 -19.0782,19.9454 -11.7071,7.8048 -25.5822,11.2735 -13.8751,3.9024 -29.0509,3.9024 -27.7502,0 -46.8284,-8.6719 -18.6446,-9.1055 -28.1838,-27.7502 -9.5391,-18.6446 -9.5391,-48.12912 v -152.1922 h 38.5901 V 992.8471 q 0,27.7501 12.5743,41.6252 12.5742,13.8751 39.0236,13.8751 26.0158,0 40.758,-9.5391 15.1759,-9.9727 21.2462,-28.6174 6.504,-19.07818 6.504,-45.96113 V 843.25648 Z m 111.8677,232.40742 h -38.1564 V 746.13097 h 38.1564 z"
       id="text6"
       aria-label="Sanmul" /><g
       id="g21"
       transform="matrix(2.0566044,0,0,1,-536.47989,160.40076)"><rect
         style="fill:#000000;fill-opacity:1;stroke:none;stroke-width:4.99406;stroke-linecap:round;stroke-linejoin:round;paint-order:fill markers stroke"
         id="rect12"
         width="200.842"
         height="530.52631"
         x="260.85712"
         y="389.07294"
         rx="10" /><rect
         style="fill:#000000;fill-opacity:1;stroke:none;stroke-width:2.5261;stroke-linecap:round;stroke-linejoin:round;paint-order:fill markers stroke"
         id="rect12-4"
         width="200.842"
         height="135.73743"
         x="260.85712"
         y="324.76343"
         rx="71.629936" /><rect
         style="fill:#000000;fill-opacity:1;stroke:none;stroke-width:5;stroke-linecap:round;stroke-linejoin:round;paint-order:fill markers stroke"
         id="rect20"
         width="105.39613"
         height="66.095879"
         x="308.58005"
         y="225.97644"
         ry="6.2523127" /><rect
         style="fill:#000000;fill-opacity:1;stroke:none;stroke-width:5;stroke-linecap:round;stroke-linejoin:round;paint-order:fill markers stroke"
         id="rect21"
         width="86.639191"
         height="62.523125"
         x="317.95853"
         y="287.60638"
         ry="6.2523127" /></g></g></svg>
